<?xml version="1.0" encoding="UTF-8"?>
<svg width="80px" height="41px" viewBox="0 0 80 41" version="1.1" xmlns="http://www.w3.org/2000/svg" xmlns:xlink="http://www.w3.org/1999/xlink">
    <title>American express1</title>
    <defs>
        <polygon id="path-1" points="3 0.0558640385 3 21.3390995 54.9776351 21.3390995 54.9776351 0.0558640385"></polygon>
        <polygon id="path-3" points="42.0925898 6.16238135 42.0925898 0.0385269231 0.331331538 0.0385269231 0.331331538 6.16238135"></polygon>
    </defs>
    <g id="设置-配置支付渠道" stroke="none" stroke-width="1" fill="none" fill-rule="evenodd">
        <g id="amer1" transform="translate(-1.000000, -0.500000)">
            <rect id="矩形" fill="#0070D6" x="0" y="0" width="82" height="42"></rect>
            <g id="编组" transform="translate(13.000000, 9.298077)">
                <g id="编组-12" transform="translate(0.000000, 0.701923)">
                    <g id="Clipped">
                        <mask id="mask-2" fill="white">
                            <use xlink:href="#path-1"></use>
                        </mask>
                        <g id="bluebox-55x54-a"></g>
                        <path d="M48.6095028,9.13566597 L52.5109607,9.13566597 L52.5109607,0.0554111895 L48.3468547,0.0554111895 L48.3468547,1.50753392 L47.4200282,0.0554111895 L43.7897213,0.0554111895 L43.7897213,1.8915859 L42.9762681,0.0554111895 L36.9750425,0.0554111895 C36.6868855,0.0554111895 36.4053418,0.0766686791 36.1327736,0.119183659 C35.9008307,0.155557585 35.675029,0.207520337 35.4572578,0.275544304 C35.2862531,0.328924222 35.1199722,0.392224303 34.9598325,0.465444545 C34.7718219,0.551891669 34.5918418,0.651565675 34.4213094,0.765411342 L34.4213094,0.453162439 L34.4213094,0.0554111895 L14.8356033,0.0554111895 L14.3022766,1.63885796 L13.7595019,0.0554111895 L9.20236859,0.0554111895 L9.20236859,1.91095384 L8.37993994,0.0554111895 L4.66224121,0.0554111895 L2.99990552,3.93939073 L2.99990552,8.32740897 L2.99990552,9.13566597 L5.6329999,9.13566597 L6.12286694,7.83234566 L7.05016588,7.83234566 L7.5490083,9.13566597 L27.8083407,9.13566597 L27.8083407,7.81486728 L28.8230315,9.13566597 L34.4213094,9.13566597 L34.4213094,8.84514694 L34.4213094,8.47526662 C34.5658604,8.56879957 34.71608,8.65052282 34.8686615,8.7218535 C35.0217155,8.7927118 35.1780761,8.85317755 35.3363262,8.90419552 C35.5318952,8.96796799 35.7307709,9.01615164 35.9287017,9.05205317 C36.2518155,9.11062936 36.5735121,9.13566597 36.8791477,9.13566597 L40.229328,9.13566597 L40.7191951,7.83234566 L41.646494,7.83234566 L42.144864,9.13566597 L47.7610928,9.13566597 L47.7610928,7.78841352 L48.6095028,9.13566597 Z M21.0985321,12.2600446 L21.911513,13.4235378 L22.7339417,12.2600446 L54.9773019,12.2600446 L54.9773019,20.7800464 C54.7727576,20.9061741 54.5497901,21.0138787 54.3117063,21.1003259 C53.888446,21.2538522 53.4165298,21.3393546 52.9129634,21.3393546 L52.9129634,21.3393546 L35.4180496,21.3393546 L34.4033587,20.0190282 L34.4033587,21.3393546 L30.3710491,21.3393546 L30.3710491,19.0355151 C29.792373,19.2504519 29.1390595,19.3803588 28.420084,19.3803588 L28.420084,19.3803588 L28.4810221,19.3803588 L28.4810221,21.3393546 L22.6989849,21.3393546 L21.8680533,20.1583829 L21.063103,21.3393546 L11.8260152,21.3393546 L11.8260152,12.2600446 L21.0985321,12.2600446 Z M3,3.9221013 L2.99990552,9.13566597 L0.845852742,9.13566597 L3,3.9221013 Z" id="形状" fill="#FFFFFF" fill-rule="nonzero"></path>
                    </g>
                    <g id="编组" transform="translate(12.920683, 13.699211)">
                        <g id="Clipped">
                            <mask id="mask-4" fill="white">
                                <use xlink:href="#path-3"></use>
                            </mask>
                            <g id="bluebox-55x54-c"></g>
                            <path d="M40.0280419,4.93745348 L36.887602,4.93745348 L36.887602,6.16235728 L39.9836373,6.16235728 C41.3053807,6.16235728 42.0923803,5.357407 42.0923803,4.21139212 C42.0923803,3.11781238 41.3837973,2.4796153 40.1943227,2.4796153 L38.7771567,2.4796153 C38.4266443,2.4796153 38.1824194,2.25192397 38.1824194,1.89338098 C38.1824194,1.5258626 38.4266443,1.28116528 38.7771567,1.28116528 L41.4357601,1.28116528 L41.979007,0.0387831088 L38.8206164,0.0387831088 C37.4993454,0.0387831088 36.7123458,0.843733381 36.7123458,1.94581612 C36.7123458,3.07435263 37.456358,3.72152509 38.6198513,3.72152509 L40.0280419,3.72152509 C40.3776095,3.72152509 40.6312822,3.94874403 40.6312822,4.31673479 C40.6312822,4.69228378 40.3776095,4.93745348 40.0280419,4.93745348 Z M34.2020725,4.93745348 L31.0621051,4.93745348 L31.0621051,6.16235728 L34.1581404,6.16235728 C35.4794115,6.16235728 36.2668834,5.357407 36.2668834,4.21139212 C36.2668834,3.11781238 35.5583004,2.4796153 34.3683534,2.4796153 L32.9511873,2.4796153 C32.6011474,2.4796153 32.35645,2.25192397 32.35645,1.89338098 C32.35645,1.5258626 32.6011474,1.28116528 32.9511873,1.28116528 L35.6102632,1.28116528 L36.1530377,0.0387831088 L32.9946471,0.0387831088 C31.6738485,0.0387831088 30.8863766,0.843733381 30.8863766,1.94581612 C30.8863766,3.07435263 31.6303887,3.72152509 32.7938819,3.72152509 L34.2020725,3.72152509 C34.5516401,3.72152509 34.8053128,3.94874403 34.8053128,4.31673479 C34.8053128,4.69228378 34.5516401,4.93745348 34.2020725,4.93745348 Z M30.169763,1.28116528 L30.169763,0.0387831088 L25.2710926,0.0387831088 L25.2710926,6.16235728 L30.169763,6.16235728 L30.169763,4.92847811 L26.7406937,4.92847811 L26.7406937,3.6955437 L30.090874,3.6955437 L30.090874,2.47063992 L26.7406937,2.47063992 L26.7406937,1.28116528 L30.169763,1.28116528 Z M21.9643719,1.28966827 C22.4891958,1.28966827 22.7693223,1.63073289 22.7693223,2.05115879 C22.7693223,2.47063992 22.4891958,2.80272914 21.9643719,2.80272914 L20.2410982,2.80272914 L20.2410982,1.28966827 L21.9643719,1.28966827 Z M20.2410982,3.95771942 L20.9322027,3.95771942 L22.7603468,6.16235728 L24.5884909,6.16235728 L22.5506063,3.90528427 C23.5917509,3.7125497 24.2124696,2.96050696 24.2124696,1.98077288 C24.2124696,0.834757997 23.3990163,0.0387831088 22.0956961,0.0387831088 L18.771497,0.0387831088 L18.771497,6.16235728 L20.2410982,6.16235728 L20.2410982,3.95771942 Z M16.4969457,2.09414616 C16.4969457,2.50606907 16.23477,2.84666128 15.7184492,2.84666128 L13.9602185,2.84666128 L13.9602185,1.3425758 L15.7184492,1.3425758 C16.23477,1.3425758 16.4969457,1.67466503 16.4969457,2.09414616 Z M12.4906174,0.0387831088 L12.4906174,6.16235728 L13.9602185,6.16235728 L13.9602185,4.14100622 L15.8058411,4.14100622 C17.1445905,4.14100622 17.9750498,3.2666148 17.9750498,2.08564316 C17.9750498,0.870187146 17.1620689,0.0387831088 15.8582762,0.0387831088 L12.4906174,0.0387831088 Z M10.3299117,6.16235728 L12.1670313,6.16235728 L9.70872066,3.07435263 L12.1495528,0.0387831088 L10.3653409,0.0387831088 L8.86031062,1.98077288 L7.36472813,0.0387831088 L5.52760864,0.0387831088 L7.97694383,3.100334 L5.53611163,6.16235728 L7.32079598,6.16235728 L8.82535385,4.19391374 L10.3299117,6.16235728 Z M5.23000378,1.28116528 L5.23000378,0.0387831088 L0.331333404,0.0387831088 L0.331333404,6.16235728 L5.23000378,6.16235728 L5.23000378,4.92847811 L1.80140691,4.92847811 L1.80140691,3.6955437 L5.15158727,3.6955437 L5.15158727,2.47063992 L1.80140691,2.47063992 L1.80140691,1.28116528 L5.23000378,1.28116528 Z" id="形状" fill="#006FCF" fill-rule="nonzero" mask="url(#mask-4)"></path>
                        </g>
                    </g>
                    <path d="M46.5713819,3.99201483 L46.5539036,3.48466941 L46.8600114,3.99201483 L49.2040039,7.65727843 L50.9192472,7.65727843 L50.9192472,1.53370426 L49.4846028,1.53370426 L49.4846028,5.07661918 L49.5020812,5.53152946 L49.2309301,5.07661918 L46.9384279,1.53370426 L45.13721,1.53370426 L45.13721,7.65727843 L46.5713819,7.65727843 L46.5713819,3.99201483 Z M40.7109282,3.81723102 L41.1568631,2.67121614 L41.6023257,3.81723102 L42.1455726,5.17298647 L40.1771291,5.17298647 L40.7109282,3.81723102 Z M43.1423127,7.65727843 L44.7952006,7.65727843 L42.1805293,1.53370426 L40.2465702,1.53370426 L37.6229236,7.65727843 L39.1884196,7.65727843 L39.7047404,6.34498273 L42.6174889,6.34498273 L43.1423127,7.65727843 Z M36.7305814,7.65727843 L36.8094703,7.65727843 L37.4127106,6.35395812 L36.9667757,6.35395812 C35.9605879,6.35395812 35.3658506,5.72426403 35.3658506,4.63965968 L35.3658506,4.55226778 C35.3658506,3.5810367 35.8991773,2.85497533 36.9492974,2.85497533 L38.5412471,2.85497533 L38.5412471,1.53370426 L36.8269487,1.53370426 C34.9373941,1.53370426 33.9052248,2.80254018 33.9052248,4.54329239 L33.9052248,4.64816268 C33.9052248,6.46780378 34.9638479,7.64877543 36.7305814,7.65727843 Z M31.5083248,7.65727843 L32.9779259,7.65727843 L32.9779259,4.96230113 L32.9779259,1.53370426 L31.5083248,1.53370426 L31.5083248,4.92734437 L31.5083248,7.65727843 Z M28.4203201,2.78506181 C28.9451439,2.78506181 29.2252705,3.12612641 29.2252705,3.54607993 C29.2252705,3.96603345 28.9451439,4.29812268 28.4203201,4.29812268 L26.6970463,4.29812268 L26.6970463,2.78506181 L28.4203201,2.78506181 Z M26.6970463,5.45311294 L27.3881509,5.45311294 L29.2167674,7.65727843 L31.0449115,7.65727843 L29.0065545,5.40020541 C30.0476991,5.20794323 30.6688902,4.4554281 30.6688902,3.47616642 C30.6688902,2.33015153 29.8549645,1.53370426 28.5516442,1.53370426 L25.2274452,1.53370426 L25.2274452,7.65727843 L26.6970463,7.65727843 L26.6970463,5.45311294 Z M24.1518163,2.77608642 L24.1518163,1.53370426 L19.2531459,1.53370426 L19.2531459,7.65727843 L24.1518163,7.65727843 L24.1518163,6.40639326 L20.722747,6.40639326 L20.722747,5.19046485 L24.0729273,5.19046485 L24.0729273,3.96603345 L20.722747,3.96603345 L20.722747,2.77608642 L24.1518163,2.77608642 Z M11.9665508,3.47616642 L11.9311217,1.82280612 L13.6284141,7.65727843 L14.9581882,7.65727843 L16.6550083,1.85776288 L16.6200515,3.46719103 L16.6200515,7.65727843 L18.0457205,7.65727843 L18.0457205,1.53370426 L15.4565582,1.53370426 L14.293065,5.87259407 L13.1210687,1.53370426 L10.5404095,1.53370426 L10.5404095,7.65727843 L11.9665508,7.65727843 L11.9665508,3.47616642 Z M6.11412774,3.81723102 L6.56053503,2.67121614 L7.00646992,3.81723102 L7.5487721,5.17298647 L5.58080095,5.17298647 L6.11412774,3.81723102 Z M8.54598456,7.65727843 L10.1993449,7.65727843 L7.58372886,1.53370426 L5.65071447,1.53370426 L3.02612309,7.65727843 L4.59209149,7.65727843 L5.10841229,6.34498273 L8.02116076,6.34498273 L8.54598456,7.65727843 Z" id="形状" fill="#006FCF" fill-rule="nonzero"></path>
                </g>
            </g>
        </g>
    </g>
</svg>