<?xml version="1.0" encoding="UTF-8"?>
<svg width="80px" height="40px" viewBox="0 0 80 40" version="1.1" xmlns="http://www.w3.org/2000/svg" xmlns:xlink="http://www.w3.org/1999/xlink">
    <title>maestro</title>
    <g id="设置-配置支付渠道" stroke="none" stroke-width="1" fill="none" fill-rule="evenodd">
        <g id="mastercard" transform="translate(0.000000, -0.666667)" fill-rule="nonzero">
            <path d="M34.1475682,32.7657087 L34.1475682,31.2020164 C34.1660041,30.935979 34.0690739,30.6748721 33.8815062,30.485309 C33.6939385,30.2957459 33.433872,30.1960582 33.1676543,30.2116779 C32.8168228,30.1886781 32.4812793,30.3584471 32.2919866,30.6547241 C32.1194061,30.3672808 31.8034053,30.1972804 31.468442,30.2116779 C31.1767919,30.1969341 30.8991438,30.3377414 30.7387189,30.5817518 L30.7387189,30.2742256 L30.1966389,30.2742256 L30.1966389,32.7657087 L30.7439313,32.7657087 L30.7439313,31.3948718 C30.7203608,31.2223679 30.7750168,31.0483464 30.8929843,30.9202963 C31.0109517,30.7922461 31.1799171,30.7235332 31.3537713,30.7329087 C31.7134205,30.7329087 31.8958513,30.9674626 31.8958513,31.3896595 L31.8958513,32.7761333 L32.4431436,32.7761333 L32.4431436,31.3948718 C32.4205403,31.2225641 32.4755305,31.0491064 32.5932793,30.9212937 C32.711028,30.793481 32.8794041,30.7244811 33.0529836,30.7329087 C33.4230574,30.7329087 33.6002759,30.9674626 33.6002759,31.3896595 L33.6002759,32.7761333 L34.1475682,32.7657087 Z M45.0894705,30.255388 L44.1981659,30.255388 L44.1981659,29.4996033 L43.6508735,29.4996033 L43.6508735,30.255388 L43.1557043,30.255388 L43.1557043,30.7505572 L43.6612982,30.7505572 L43.6612982,31.8972649 C43.6612982,32.475831 43.8854274,32.8198505 44.5265412,32.8198505 C44.766062,32.8206479 45.0009414,32.7537976 45.2041412,32.626988 L45.047772,32.1630926 C44.9024016,32.2498018 44.7374132,32.2982223 44.5682397,32.3038249 C44.3076243,32.3038249 44.2085905,32.137031 44.2085905,31.8868403 L44.2085905,30.7505572 L45.0946828,30.7505572 L45.0894705,30.255388 Z M46.8682051,30.2116779 C46.5989679,30.2037598 46.3469699,30.3437587 46.2114543,30.5765395 L46.2114543,30.2742256 L45.6745866,30.2742256 L45.6745866,32.7657087 L46.2166666,32.7657087 L46.2166666,31.3688103 C46.2166666,30.9570379 46.3938851,30.7276964 46.7378974,30.7276964 C46.8538411,30.7261105 46.9689629,30.7473637 47.0766974,30.7902441 L47.2434913,30.2690133 C47.1196916,30.2247254 46.9892622,30.2018121 46.8577805,30.2012533 L46.8682051,30.2116779 Z M48.7700892,32.9161126 C49.0114086,32.9161126 49.2340649,32.859689 49.4380579,32.7468418 C49.642051,32.6339945 49.7974329,32.4755744 49.9042038,32.2715813 C50.0109746,32.0675883 50.06436,31.7876404 50.06436,31.4317376 C50.06436,30.9925015 49.9437003,30.6483175 49.7023809,30.3991855 C49.4610614,30.1500536 49.1502975,30.0254876 48.7700892,30.0254876 C48.4280753,30.0254876 48.1381448,30.1279182 47.9002975,30.3327793 C47.6155753,30.579307 47.4732142,30.9586473 47.4732142,31.4708001 C47.4732142,31.937814 47.5925718,32.2954529 47.8312871,32.5437168 C48.0700024,32.7919807 48.3829364,32.9161126 48.7700892,32.9161126 Z M48.7699604,32.4247201 C48.5587604,32.4247201 48.3835427,32.3453245 48.2443071,32.1865334 C48.1050716,32.0277423 48.0354538,31.7887734 48.0354538,31.4696268 C48.0354538,31.1504801 48.1050716,30.9119023 48.2443071,30.7538934 C48.3835427,30.5958845 48.5587604,30.5168801 48.7699604,30.5168801 C48.9780316,30.5168801 49.152076,30.5962757 49.2920938,30.7550668 C49.4321116,30.9138579 49.5021204,31.1473512 49.5021204,31.4555468 C49.5021204,31.7825157 49.4325027,32.0257868 49.2932671,32.1853601 C49.1540316,32.3449334 48.979596,32.4247201 48.7699604,32.4247201 Z M42.7153336,30.4090647 C42.4084915,30.226628 42.055703,30.1361694 41.6989336,30.1484494 C41.0682443,30.1484494 40.656472,30.4507632 40.656472,30.9459324 C40.656472,31.3524924 40.9587859,31.6026832 41.5165028,31.6808678 L41.7771182,31.717354 C42.0742197,31.7590524 42.214952,31.8372371 42.214952,31.9779694 C42.214952,32.1708247 42.0168843,32.2802832 41.6468105,32.2802832 C41.3491362,32.2888997 41.0572212,32.1971025 40.8180536,32.0196678 L40.5574382,32.4418647 C40.8732034,32.6623429 41.2514105,32.7756223 41.6363859,32.7650278 C42.3556843,32.7650278 42.772669,32.4262278 42.772669,31.9519078 C42.772669,31.4775878 42.4442936,31.2847324 41.9022136,31.2065478 L41.6415982,31.1700617 C41.4070443,31.1387878 41.2194013,31.0918771 41.2194013,30.9250832 C41.2194013,30.7582894 41.3966197,30.633194 41.6937213,30.633194 C41.9683253,30.6363839 42.2375203,30.7099639 42.4755674,30.8468986 L42.7153336,30.4090647 Z M50.6343975,32.1136163 C50.8155498,32.1204157 50.9580413,32.2707688 50.9551116,32.452025 C50.9521818,32.6332811 50.8049056,32.7789506 50.6236283,32.7798919 C50.531324,32.7810598 50.4427265,32.7436231 50.3792275,32.6766207 C50.3157285,32.6096183 50.2830992,32.5191399 50.2892178,32.4270313 C50.2998838,32.2460655 50.4532452,32.1068169 50.6343975,32.1136163 Z M38.8959805,30.2117045 C38.176311,30.2217799 37.6010713,30.813355 37.6111466,31.5330245 C37.621222,32.252694 38.2127971,32.8279337 38.9324666,32.8178583 C39.3074243,32.8371045 39.6761601,32.7163598 39.9671097,32.4790583 L39.7064943,32.0777107 C39.5007025,32.2427528 39.2457529,32.3344613 38.9819836,32.338326 C38.609399,32.3703687 38.2789945,32.1000377 38.2366236,31.728486 L40.0869928,31.728486 C40.0869928,31.660726 40.0869928,31.592966 40.0869928,31.5199937 C40.0869928,30.7381476 39.6022482,30.2169168 38.9037989,30.2169168 L38.8959805,30.2117045 Z M38.8959805,30.6964491 C39.0598041,30.6929564 39.2183018,30.7547044 39.336587,30.8681018 C39.4548722,30.9814993 39.52325,31.1372517 39.5266697,31.3010768 L38.2235928,31.3010768 C38.2432245,30.9531092 38.5372377,30.6845617 38.8855559,30.6964491 L38.8959805,30.6964491 Z M37.2045866,31.5199672 L37.2045866,30.2742256 L36.6625066,30.2742256 L36.6625066,30.5765395 C36.4757505,30.3362391 36.1847925,30.2004587 35.8806605,30.2116779 C35.160991,30.2116779 34.5775836,30.7950854 34.5775836,31.5147549 C34.5775836,32.2344244 35.160991,32.8178318 35.8806605,32.8178318 C36.1847925,32.8290511 36.4757505,32.6932707 36.6625066,32.4529703 L36.6625066,32.7552841 L37.2045866,32.7552841 L37.2045866,31.5199672 Z M35.1874236,31.5199672 C35.2115292,31.1109753 35.5581338,30.7962665 35.9675472,30.8116335 C36.3769606,30.8270004 36.6989986,31.1668061 36.6923773,31.5764542 C36.685756,31.9861024 36.3529043,32.3153228 35.9432082,32.3174503 C35.7336967,32.3215634 35.5320681,32.2375995 35.3874012,32.0859966 C35.2427343,31.9343936 35.1682981,31.7290566 35.1822113,31.5199672 L35.1874236,31.5199672 Z" id="形状" fill="#231F20"></path>
            <g id="_Group_" transform="translate(25.242564, 9.242564)">
                <rect id="矩形" fill="#7673C0" x="11.1152462" y="2.04583077" width="8.20938462" height="14.7534369"></rect>
                <path d="M11.6364769,9.42385231 C11.6334076,6.54444121 12.9548894,3.82363015 15.2199385,2.04583077 C11.3732007,-0.977294197 5.84913111,-0.536949903 2.52989723,3.05740152 C-0.789336638,6.65175294 -0.789336638,12.1933455 2.52989723,15.7876969 C5.84913111,19.3820484 11.3732007,19.8223927 15.2199385,16.7992677 C12.95561,15.0220327 11.6342089,12.3023488 11.6364769,9.42385231 L11.6364769,9.42385231 Z" id="_Path_" fill="#EB001B"></path>
                <path d="M30.4007846,9.42385231 C30.4007846,13.0160133 28.3495906,16.2928009 25.1185682,17.8625508 C21.8875458,19.4323007 18.0438599,19.0194227 15.2199385,16.7992677 C17.4832789,15.0205239 18.8047795,12.3012016 18.8047795,9.42254923 C18.8047795,6.54389685 17.4832789,3.8245746 15.2199385,2.04583077 C18.0438599,-0.174324282 21.8875458,-0.587202276 25.1185682,0.982547656 C28.3495906,2.55229759 30.4007846,5.82908517 30.4007846,9.42124615 L30.4007846,9.42385231 Z" id="路径" fill="#02A1DF"></path>
                <path d="M29.5199046,15.2659805 L29.5199046,14.9384738 L29.6526013,14.9384738 L29.6526013,14.8707138 L29.3166246,14.8707138 L29.3166246,14.9384738 L29.4606146,14.9384738 L29.4606146,15.2659805 L29.5199046,15.2659805 Z M30.1720946,15.2659805 L30.1720946,14.8707138 L30.0704546,14.8707138 L29.9518746,15.1530472 L29.8332946,14.8707138 L29.7429479,14.8707138 L29.7429479,15.2659805 L29.8163546,15.2659805 L29.8163546,14.9695305 L29.9264646,15.2264538 L30.0026946,15.2264538 L30.1128046,14.9695305 L30.1128046,15.2688038 L30.1720946,15.2659805 Z" id="形状" fill="#02A1DF"></path>
            </g>
        </g>
    </g>
</svg>