<?xml version="1.0" encoding="UTF-8"?>
<svg width="81px" height="41px" viewBox="0 0 81 41" version="1.1" xmlns="http://www.w3.org/2000/svg" xmlns:xlink="http://www.w3.org/1999/xlink">
    <title>mastercard</title>
    <g id="设置-配置支付渠道" stroke="none" stroke-width="1" fill="none" fill-rule="evenodd">
        <g id="mastercard" transform="translate(0.500000, -0.125000)">
            <rect id="矩形" x="22" y="6" width="34.9705125" height="28.6839197"></rect>
            <g id="编组-10" transform="translate(23.485256, 8.204029)" fill-rule="nonzero">
                <path d="M5.61210517,23.7259303 L5.61210517,22.1487579 C5.63070006,21.8804271 5.53293424,21.6170693 5.34374958,21.425872 C5.15456493,21.2346747 4.8922564,21.1341276 4.62374379,21.1498821 C4.26988785,21.1266839 3.93145172,21.2979165 3.74052724,21.5967476 C3.56645891,21.3068263 3.24773402,21.1353604 2.9098831,21.1498821 C2.61571873,21.1350112 2.33567709,21.2770323 2.17386931,21.5231462 L2.17386931,21.212969 L1.62711621,21.212969 L1.62711621,23.7259303 L2.17912655,23.7259303 L2.17912655,22.3432759 C2.15535288,22.1692849 2.21048012,21.9937632 2.32946453,21.8646092 C2.44844894,21.7354552 2.61887093,21.6661499 2.79422379,21.6756062 C3.15697345,21.6756062 3.3409769,21.9121821 3.3409769,22.3380186 L3.3409769,23.7364448 L3.89298724,23.7364448 L3.89298724,22.3432759 C3.8701891,22.1694827 3.92565343,21.9945298 4.04441723,21.8656152 C4.16318104,21.7367007 4.33300864,21.667106 4.50808448,21.6756062 C4.88134862,21.6756062 5.06009483,21.9121821 5.06009483,22.3380186 L5.06009483,23.7364448 L5.61210517,23.7259303 Z M13.7792297,21.212969 L12.8802414,21.212969 L12.8802414,20.450669 L12.328231,20.450669 L12.328231,21.212969 L11.8287931,21.212969 L11.8287931,21.7124069 L12.3387455,21.7124069 L12.3387455,22.869 C12.3387455,23.4525538 12.5648069,23.799539 13.2114476,23.799539 C13.4530332,23.8003432 13.6899374,23.7329167 13.894889,23.6050138 L13.7371717,23.1371193 C13.5905481,23.2245761 13.4241374,23.273414 13.2535055,23.2790648 C12.9906434,23.2790648 12.8907559,23.1108331 12.8907559,22.8584855 L12.8907559,21.7124069 L13.7844869,21.7124069 L13.7792297,21.212969 Z M18.4424028,21.1498821 C18.1708445,21.1418956 17.9166741,21.2831014 17.7799903,21.517889 L17.7799903,21.212969 L17.2384945,21.212969 L17.2384945,23.7259303 L17.7852476,23.7259303 L17.7852476,22.3169897 C17.7852476,21.9016676 17.9639938,21.670349 18.3109717,21.670349 C18.4279149,21.6687493 18.5440292,21.6901858 18.6526924,21.7334359 L18.8209241,21.2077117 C18.6960573,21.163042 18.5645035,21.1399312 18.4318883,21.1393676 L18.4424028,21.1498821 Z M11.3924421,21.4127441 C11.0829548,21.2287347 10.727125,21.1374962 10.36728,21.1498821 C9.73115379,21.1498821 9.31583172,21.4548021 9.31583172,21.95424 C9.31583172,22.3643048 9.62075172,22.6166524 10.1832766,22.695511 L10.4461386,22.7323117 C10.7458014,22.7743697 10.8877469,22.8532283 10.8877469,22.9951738 C10.8877469,23.1896917 10.6879717,23.3000938 10.3147076,23.3000938 C10.0144672,23.3087846 9.72003558,23.216196 9.47880621,23.0372317 L9.21594414,23.4630683 C9.53443146,23.6854471 9.91589897,23.7997031 10.3041931,23.7890172 C11.0296924,23.7890172 11.4502717,23.4472966 11.4502717,22.9688876 C11.4502717,22.4904786 11.1190655,22.2959607 10.5723124,22.2171021 L10.3094503,22.1803014 C10.0728745,22.1487579 9.88361379,22.1014428 9.88361379,21.933211 C9.88361379,21.7649793 10.06236,21.6388055 10.3620228,21.6388055 C10.6389941,21.642023 10.9105097,21.7162372 11.150609,21.8543524 L11.3924421,21.4127441 Z M26.0364879,21.1498821 C25.7649297,21.1418956 25.5107593,21.2831014 25.3740755,21.517889 L25.3740755,21.212969 L24.8325797,21.212969 L24.8325797,23.7259303 L25.3793328,23.7259303 L25.3793328,22.3169897 C25.3793328,21.9016676 25.558079,21.670349 25.9050569,21.670349 C26.0220001,21.6687493 26.1381144,21.6901858 26.2467776,21.7334359 L26.4150093,21.2077117 C26.2901425,21.163042 26.1585887,21.1399312 26.0259734,21.1393676 L26.0364879,21.1498821 Z M18.9917845,22.4641924 C18.9786355,22.8212734 19.1165664,23.1673649 19.371721,23.4175165 C19.6268757,23.6676682 19.9756304,23.7987194 20.332381,23.7785028 C20.6606638,23.795205 20.983289,23.6882885 21.2366266,23.47884 L20.9737645,23.0372317 C20.784759,23.1813619 20.5542846,23.2606451 20.3166093,23.2632931 C19.8975285,23.2293848 19.5747043,22.8793855 19.5747043,22.4589352 C19.5747043,22.0384848 19.8975285,21.6884856 20.3166093,21.6545772 C20.5542846,21.6572252 20.784759,21.7365084 20.9737645,21.8806386 L21.2366266,21.4390303 C20.983289,21.2295819 20.6606638,21.1226654 20.332381,21.1393676 C19.9756304,21.119151 19.6268757,21.2502022 19.371721,21.5003538 C19.1165664,21.7505054 18.9786355,22.0965969 18.9917845,22.4536779 L18.9917845,22.4641924 Z M24.1123376,22.4641924 L24.1123376,21.212969 L23.5655845,21.212969 L23.5655845,21.517889 C23.3772184,21.275517 23.0837521,21.1385661 22.7769983,21.1498821 C22.0511247,21.1498821 21.4626879,21.7383189 21.4626879,22.4641924 C21.4626879,23.190066 22.0511247,23.7785028 22.7769983,23.7785028 C23.0837521,23.7898188 23.3772184,23.6528678 23.5655845,23.4104959 L23.5655845,23.7154159 L24.1123376,23.7154159 L24.1123376,22.4641924 Z M22.0777852,22.4641924 C22.1020986,22.0516747 22.4516912,21.734253 22.864634,21.7497524 C23.2775768,21.7652518 23.602391,22.1079868 23.5957127,22.5211664 C23.5890343,22.934346 23.2533132,23.2664046 22.8400852,23.2685503 C22.6296744,23.2712127 22.4277136,23.1858744 22.2829654,23.0331401 C22.1382172,22.8804059 22.0638376,22.6741573 22.0777852,22.4641924 L22.0777852,22.4641924 Z M15.4799472,21.1498821 C14.7540737,21.1600443 14.173875,21.7567192 14.1840372,22.4825928 C14.1941995,23.2084663 14.7908744,23.788665 15.5167479,23.7785028 C15.8949379,23.7979148 16.2668526,23.6761292 16.5603103,23.4367821 L16.2974483,23.0319745 C16.0898824,23.1984394 15.8327349,23.2909385 15.5666917,23.2948366 C15.1908953,23.3271555 14.8576424,23.054494 14.8149062,22.6797393 L16.6812269,22.6797393 C16.6812269,22.6113952 16.6812269,22.543051 16.6812269,22.4694497 C16.6812269,21.6808634 16.1923034,21.1551393 15.4878331,21.1551393 L15.4799472,21.1498821 Z M15.4799472,21.6388055 C15.6451831,21.6352827 15.8050472,21.697563 15.9243521,21.811938 C16.043657,21.926313 16.1126242,22.0834081 16.1160734,22.2486455 L14.8017631,22.2486455 C14.8215641,21.8976782 15.1181119,21.6268157 15.4694328,21.6388055 L15.4799472,21.6388055 Z M29.1776897,22.4694497 L29.1776897,20.2035786 L28.6519655,20.2035786 L28.6519655,21.517889 C28.4635994,21.275517 28.1701331,21.1385661 27.8633793,21.1498821 C27.1375058,21.1498821 26.549069,21.7383189 26.549069,22.4641924 C26.549069,23.190066 27.1375058,23.7785028 27.8633793,23.7785028 C28.1701331,23.7898188 28.4635994,23.6528678 28.6519655,23.4104959 L28.6519655,23.7154159 L29.1776897,23.7154159 L29.1776897,22.4694497 Z M30.089821,23.3605521 C30.1239965,23.3601334 30.1579256,23.3663835 30.1897086,23.3789524 C30.2198964,23.3912712 30.247529,23.4090986 30.2711959,23.4315248 C30.2942933,23.4541892 30.3130074,23.4809235 30.3263969,23.5103834 C30.3533038,23.5724313 30.3533038,23.6428535 30.3263969,23.7049014 C30.3130074,23.7343613 30.2942933,23.7610957 30.2711959,23.78376 C30.247529,23.8061862 30.2198964,23.8240136 30.1897086,23.8363324 C30.1582394,23.8502182 30.1242176,23.8573806 30.089821,23.8573614 C29.9881065,23.8565947 29.8959636,23.7972138 29.8532452,23.7049014 C29.8266499,23.6427892 29.8266499,23.5724956 29.8532452,23.5103834 C29.8666347,23.4809235 29.8853487,23.4541892 29.9084462,23.4315248 C29.9321131,23.4090986 29.9597456,23.3912712 29.9899334,23.3789524 C30.0241712,23.3653331 30.0608898,23.3590641 30.0977069,23.3605521 L30.089821,23.3605521 Z M30.089821,23.804789 C30.1160572,23.8049483 30.1420321,23.7995742 30.166051,23.7890172 C30.1886667,23.7789201 30.2091773,23.7646518 30.2265093,23.7469593 C30.2946686,23.6725938 30.2946686,23.5584628 30.2265093,23.4840972 C30.2092186,23.4663559 30.1886981,23.4520808 30.166051,23.4420393 C30.1420084,23.4315567 30.1160494,23.4261859 30.089821,23.4262667 C30.0636153,23.4264061 30.0377002,23.4317678 30.013591,23.4420393 C29.9899741,23.4517232 29.9685265,23.4660215 29.9505041,23.4840972 C29.8823448,23.5584628 29.8823448,23.6725938 29.9505041,23.7469593 C29.9685708,23.764981 29.9900069,23.7792718 30.013591,23.7890172 C30.0401111,23.8004538 30.0688451,23.8058414 30.0977069,23.804789 L30.089821,23.804789 Z M30.1055928,23.4919831 C30.1301313,23.4907931 30.1543118,23.4982333 30.1739369,23.5130121 C30.1902613,23.5265221 30.1990695,23.5470747 30.1975945,23.5682131 C30.1983576,23.5858657 30.1916828,23.6030292 30.1791941,23.6155283 C30.1639582,23.6293669 30.1445217,23.6376968 30.1239931,23.6391859 L30.2002231,23.7259303 L30.1397648,23.7259303 L30.0687921,23.6391859 L30.0451345,23.6391859 L30.0451345,23.7259303 L29.9951907,23.7259303 L29.9951907,23.4946117 L30.1055928,23.4919831 Z M30.0477631,23.5366697 L30.0477631,23.5997566 L30.1055928,23.5997566 C30.1158834,23.6028246 30.1268455,23.6028246 30.1371362,23.5997566 C30.1408854,23.5923163 30.1408854,23.5835392 30.1371362,23.576099 C30.1408854,23.5686587 30.1408854,23.5598816 30.1371362,23.5524414 C30.1268455,23.5493733 30.1158834,23.5493733 30.1055928,23.5524414 L30.0477631,23.5366697 Z M27.1562803,22.4694497 C27.1805938,22.056932 27.5301864,21.7395102 27.9431292,21.7550096 C28.356072,21.770509 28.6808862,22.113244 28.6742078,22.5264237 C28.6675295,22.9396033 28.3318084,23.2716618 27.9185803,23.2738076 C27.7081695,23.2764699 27.5062087,23.1911317 27.3614606,23.0383974 C27.2167124,22.8856631 27.1423328,22.6794146 27.1562803,22.4694497 L27.1562803,22.4694497 Z M8.69547724,22.4694497 L8.69547724,21.212969 L8.14872414,21.212969 L8.14872414,21.517889 C7.96035806,21.275517 7.66689173,21.1385661 7.36013793,21.1498821 C6.63426437,21.1498821 6.04582759,21.7383189 6.04582759,22.4641924 C6.04582759,23.190066 6.63426437,23.7785028 7.36013793,23.7785028 C7.66689173,23.7898188 7.96035806,23.6528678 8.14872414,23.4104959 L8.14872414,23.7154159 L8.69547724,23.7154159 L8.69547724,22.4694497 Z M6.66092483,22.4694497 C6.68523826,22.056932 7.03483085,21.7395102 7.44777365,21.7550096 C7.86071646,21.770509 8.18553068,22.113244 8.17885232,22.5264237 C8.17217396,22.9396033 7.83645284,23.2716618 7.42322483,23.2738076 C7.21190725,23.2779562 7.00854043,23.1932685 6.86262643,23.0403586 C6.71671243,22.8874487 6.64163451,22.6803416 6.65566759,22.4694497 L6.66092483,22.4694497 Z" id="形状" fill="#231F20"></path>
                <g id="_Group_">
                    <rect id="矩形" fill="#FF5F00" x="11.2110672" y="2.06346724" width="8.28015517" height="14.8806217"></rect>
                    <path d="M11.7367914,9.50509241 C11.7336956,6.60085881 13.0665695,3.85659248 15.3511448,2.06346724 C11.4712456,-0.985719147 5.89955465,-0.541578781 2.55170669,3.08375843 C-0.796141265,6.70909563 -0.796141265,12.2984606 2.55170669,15.9237978 C5.89955465,19.549135 11.4712456,19.9932754 15.3511448,16.944089 C13.0672963,15.151533 11.7345038,12.4084036 11.7367914,9.50509241 L11.7367914,9.50509241 Z" id="_Path_" fill="#EB001B"></path>
                    <path d="M30.6628603,9.50509241 C30.6628603,13.1282203 28.5939836,16.4332561 25.3351076,18.0165383 C22.0762316,19.5998206 18.1994104,19.1833833 15.3511448,16.944089 C17.6339968,15.1500111 18.9668897,12.4072465 18.9668897,9.5037781 C18.9668897,6.60030975 17.6339968,3.85754507 15.3511448,2.06346724 C18.1994104,-0.175827078 22.0762316,-0.592264365 25.3351076,0.991017894 C28.5939836,2.57430015 30.6628603,5.87933591 30.6628603,9.50246379 L30.6628603,9.50509241 Z" id="路径" fill="#F79E1B"></path>
                    <path d="M29.7586148,15.3669166 L29.7586148,15.0619966 L29.88216,15.0619966 L29.88216,14.9989097 L29.5693541,14.9989097 L29.5693541,15.0619966 L29.7034138,15.0619966 L29.7034138,15.3669166 L29.7586148,15.3669166 Z M30.3658262,15.3669166 L30.3658262,14.9989097 L30.2711959,14.9989097 L30.1607938,15.2617717 L30.0503917,14.9989097 L29.9662759,14.9989097 L29.9662759,15.3669166 L30.03462,15.3669166 L30.03462,15.0909114 L30.1371362,15.3301159 L30.208109,15.3301159 L30.3106252,15.0909114 L30.3106252,15.3695452 L30.3658262,15.3669166 Z" id="形状" fill="#F79E1B"></path>
                </g>
            </g>
        </g>
    </g>
</svg>