<?xml version="1.0" encoding="UTF-8"?>
<svg width="81px" height="41px" viewBox="0 0 81 41" version="1.1" xmlns="http://www.w3.org/2000/svg" xmlns:xlink="http://www.w3.org/1999/xlink">
    <title>paypal</title>
    <g id="设置-配置支付渠道" stroke="none" stroke-width="1" fill="none" fill-rule="evenodd">
        <g id="paypal" transform="translate(0.000000, -0.245424)" fill-rule="nonzero">
            <path d="M59.3532487,15.9075809 L55.3923827,15.9075809 C55.1259567,15.9075809 54.8950542,16.1029599 54.841769,16.3693859 L53.2432132,26.5113344 C53.2076897,26.7067134 53.3675453,26.8843307 53.5629244,26.8843307 L55.5877617,26.8843307 C55.7831408,26.8843307 55.9429963,26.7422369 55.9607581,26.5646196 L56.4225631,23.6872191 C56.4580865,23.4207931 56.688989,23.2254141 56.9731768,23.2254141 L58.2164979,23.2254141 C60.8274724,23.2254141 62.3194578,21.9643312 62.7102159,19.4599271 C62.8878332,18.3764615 62.7102159,17.5061367 62.2128874,16.9022378 C61.6800355,16.2450538 60.6853786,15.9075809 59.3532487,15.9075809 L59.3532487,15.9075809 Z M59.8150537,19.6020209 C59.601913,21.0229594 58.5184474,21.0229594 57.4705052,21.0229594 L56.8666064,21.0229594 L57.2928879,18.3764615 C57.3106496,18.2166059 57.4527435,18.0922738 57.6125991,18.0922738 L57.879025,18.0922738 C58.5894943,18.0922738 59.2644401,18.0922738 59.6196747,18.5007936 C59.8328155,18.7494578 59.8861007,19.1046925 59.8150537,19.6020209 L59.8150537,19.6020209 Z" id="形状" fill="#009CDE"></path>
            <path d="M31.1653814,15.9075809 L27.2045153,15.9075809 C26.9380893,15.9075809 26.7071868,16.1029599 26.6539016,16.3693859 L25.0553458,26.5113344 C25.0198224,26.7067134 25.1796779,26.8843307 25.375057,26.8843307 L27.2578005,26.8843307 C27.5242265,26.8843307 27.755129,26.6889517 27.8084142,26.4225257 L28.2346957,23.6872191 C28.2702192,23.4207931 28.5011217,23.2254141 28.7853094,23.2254141 L30.0286306,23.2254141 C32.639605,23.2254141 34.1315905,21.9643312 34.5223485,19.4599271 C34.6999659,18.3764615 34.5223485,17.5061367 34.0250201,16.9022378 C33.4921681,16.2450538 32.4975112,15.9075809 31.1653814,15.9075809 Z M31.6271864,19.6020209 C31.4140456,21.0229594 30.33058,21.0229594 29.2826378,21.0229594 L28.678739,21.0229594 L29.1050205,18.3764615 C29.1227823,18.2166059 29.2648761,18.0922738 29.4247317,18.0922738 L29.6911577,18.0922738 C30.4016269,18.0922738 31.0765727,18.0922738 31.4318073,18.5007936 C31.6449481,18.7494578 31.6982333,19.1046925 31.6271864,19.6020209 L31.6271864,19.6020209 Z M42.9769326,19.5487357 L41.0764273,19.5487357 C40.9165718,19.5487357 40.7744779,19.6730679 40.7567162,19.8329234 L40.6679075,20.3657754 L40.5435754,20.1703963 C40.1350556,19.5842592 39.2292073,19.3711184 38.3055973,19.3711184 C36.209713,19.3711184 34.4335399,20.9519125 34.0783053,23.1721289 C33.900688,24.2733562 34.1493522,25.3390601 34.7887745,26.0850528 C35.3749116,26.7599986 36.1919513,27.0441863 37.1688465,27.0441863 C38.8562109,27.0441863 39.779821,25.9607207 39.779821,25.9607207 L39.6910123,26.4935726 C39.6554888,26.6889517 39.8153444,26.866569 40.0107235,26.866569 L41.7158497,26.866569 C41.9822756,26.866569 42.2131781,26.67119 42.2664633,26.404764 L43.2966437,19.9217321 C43.3321672,19.7441148 43.1900734,19.5487357 42.9769326,19.5487357 L42.9769326,19.5487357 Z M40.3481964,23.2431758 C40.170579,24.3266414 39.3002542,25.0548724 38.2167886,25.0548724 C37.6661749,25.0548724 37.2221317,24.8772551 36.937944,24.5397822 C36.6537563,24.2023093 36.5471859,23.7405043 36.6359946,23.2076524 C36.8136119,22.1419485 37.6839367,21.3781941 38.7496406,21.3781941 C39.2824925,21.3781941 39.7265358,21.5558114 40.0107235,21.8932843 C40.3126729,22.2485189 40.437005,22.7103239 40.3481964,23.2431758 L40.3481964,23.2431758 Z" id="形状" fill="#003087"></path>
            <path d="M71.1648,19.5487357 L69.2642947,19.5487357 C69.1044391,19.5487357 68.9623453,19.6730679 68.9445836,19.8329234 L68.8557749,20.3657754 L68.7314428,20.1703963 C68.322923,19.5842592 67.4170747,19.3711184 66.4934647,19.3711184 C64.3975804,19.3711184 62.6214073,20.9519125 62.2661726,23.1721289 C62.0885553,24.2733562 62.3372195,25.3390601 62.9766419,26.0850528 C63.562779,26.7599986 64.3798187,27.0441863 65.3567139,27.0441863 C67.0440783,27.0441863 67.9676883,25.9607207 67.9676884,25.9607207 L67.8788797,26.4935726 C67.8433562,26.6889517 68.0032118,26.866569 68.1985909,26.866569 L69.903717,26.866569 C70.170143,26.866569 70.4010455,26.67119 70.4543307,26.404764 L71.4845111,19.9217321 C71.5200346,19.7441148 71.3779407,19.5487357 71.1648,19.5487357 L71.1648,19.5487357 Z M68.5360637,23.2431758 C68.3584464,24.3266414 67.4881216,25.0548724 66.404656,25.0548724 C65.8540423,25.0548724 65.4099991,24.8772551 65.1258114,24.5397822 C64.8416236,24.2023093 64.7350533,23.7405043 64.8238619,23.2076524 C65.0014792,22.1419485 65.8718041,21.3781941 66.9375079,21.3781941 C67.4703599,21.3781941 67.9144032,21.5558114 68.1985909,21.8932843 C68.5005403,22.2485189 68.6248724,22.7103239 68.5360637,23.2431758 L68.5360637,23.2431758 Z" id="形状" fill="#009CDE"></path>
            <path d="M53.0655959,19.5487357 L51.1650906,19.5487357 C50.9874733,19.5487357 50.809856,19.6375444 50.7032856,19.7974 L48.0745494,23.6694574 L46.9555604,19.9572556 C46.8845134,19.7263531 46.6713727,19.5664975 46.4227084,19.5664975 L44.5577266,19.5664975 C44.3268241,19.5664975 44.1669686,19.7974 44.2380155,20.0105408 L46.3338998,26.1560997 L44.3623476,28.9269298 C44.202492,29.1400706 44.3623476,29.44202 44.6287736,29.44202 L46.5292788,29.44202 C46.7068961,29.44202 46.8845134,29.3532114 46.9733221,29.2111175 L53.2964984,20.0815877 C53.4918774,19.8506852 53.3320219,19.5487357 53.0655959,19.5487357 Z" id="路径" fill="#003087"></path>
            <path d="M73.4027781,16.1740068 L71.7864605,26.4935726 C71.7509371,26.6889517 71.9107927,26.866569 72.1061717,26.866569 L73.740251,26.866569 C74.0066769,26.866569 74.2375794,26.67119 74.2908646,26.404764 L75.8894204,16.2628155 C75.9249439,16.0674365 75.7650883,15.8898191 75.5697093,15.8898191 L73.740251,15.8898191 C73.5626337,15.9075809 73.4205398,16.0141512 73.4027781,16.1740068 Z" id="路径" fill="#009CDE"></path>
            <path d="M17.3289928,16.4226711 C17.5421335,15.0727795 17.3289928,14.1491695 16.6007618,13.3143681 C15.7837221,12.3907581 14.3272602,12 12.4622784,12 L7.04495042,12 C6.67195407,12 6.33448118,12.2841877 6.28119598,12.6571841 L4.00769438,26.9731394 C3.95440918,27.2573271 4.1853117,27.5059913 4.46949939,27.5059913 L7.80870485,27.5059913 L7.57780234,28.9624533 C7.54227888,29.2111175 7.73765793,29.4242583 7.98632217,29.4242583 L10.8104374,29.4242583 C11.1479103,29.4242583 11.432098,29.175594 11.4853832,28.8558829 L11.5209067,28.713789 L12.0537586,25.3390601 L12.0892821,25.1614428 C12.1425673,24.8239699 12.426755,24.5930674 12.7642279,24.5930674 L13.1905094,24.5930674 C15.925816,24.5930674 18.0572237,23.4918401 18.6788843,20.2769667 C18.9453103,18.9270752 18.8032164,17.8080861 18.1105089,17.0265699 C17.8973682,16.7956674 17.6309422,16.5825267 17.3289928,16.4226711" id="路径" fill="#009CDE"></path>
            <path d="M17.3289928,16.4226711 C17.5421335,15.0727795 17.3289928,14.1491695 16.6007618,13.3143681 C15.7837221,12.3907581 14.3272602,12 12.4622784,12 L7.04495042,12 C6.67195407,12 6.33448118,12.2841877 6.28119598,12.6571841 L4.00769438,26.9731394 C3.95440918,27.2573271 4.1853117,27.5059913 4.46949939,27.5059913 L7.80870485,27.5059913 L8.64350622,22.177472 L8.62574449,22.3373275 C8.67902969,21.9643312 8.99874084,21.6801435 9.38949893,21.6801435 L10.9880547,21.6801435 C14.1141194,21.6801435 16.5652383,20.4190606 17.2757076,16.7423822 L17.3289928,16.4226711" id="路径" fill="#012169"></path>
            <path d="M9.56711624,16.4404328 C9.6026397,16.2095303 9.74473355,16.031913 9.94011259,15.9253426 C10.0289212,15.8898191 10.1354916,15.8542957 10.2243003,15.8542957 L14.4871158,15.8542957 C14.9844443,15.8542957 15.464011,15.8898191 15.8902925,15.960866 C16.0146247,15.9786278 16.1389568,15.9963895 16.2455272,16.031913 C16.3698593,16.0496747 16.4764297,16.0851982 16.5830001,16.1207216 L16.7428556,16.1740068 C16.9559964,16.2450537 17.1513755,16.3338624 17.3289928,16.4226711 C17.5421335,15.0727795 17.3289928,14.1491695 16.6007618,13.3143681 C15.7837221,12.3907581 14.3272602,12 12.4622784,12 L7.04495042,12 C6.67195407,12 6.33448118,12.2841877 6.28119598,12.6571841 L4.00769438,26.9731394 C3.95440918,27.2573271 4.1853117,27.5059913 4.46949939,27.5059913 L7.80870485,27.5059913 L8.64350622,22.177472 L9.56711624,16.4404328 Z" id="路径" fill="#003087"></path>
        </g>
    </g>
</svg>