<?xml version="1.0" encoding="UTF-8"?>
<svg width="80px" height="41px" viewBox="0 0 80 41" version="1.1" xmlns="http://www.w3.org/2000/svg" xmlns:xlink="http://www.w3.org/1999/xlink">
    <title>形状</title>
    <g id="设置-配置支付渠道" stroke="none" stroke-width="1" fill="none" fill-rule="evenodd">
        <g id="visa1" fill="#142C97" fill-rule="nonzero">
            <path d="M59.1385865,14.5942768 C58.1867582,14.5942768 57.2718173,14.593145 56.3568764,14.5948426 C55.3549864,14.5965403 54.9070672,14.8551475 54.5157966,15.6575657 C53.198387,18.3596437 51.8803188,21.0617217 50.5648854,23.7643656 C50.1426557,24.6324259 49.727013,25.5033155 49.2968788,26.3979721 L52.9915538,26.3979721 C53.2444964,25.8066273 53.486241,25.2407471 53.7306205,24.6703398 L58.309936,24.6703398 C58.4594619,25.2520647 58.6070118,25.8247355 58.7545617,26.3979721 L62,26.3979721 C61.042902,22.4486941 60.0950258,18.5367642 59.1385865,14.5942768 L59.1385865,14.5942768 Z M54.7509542,22.2347914 C55.3688192,20.7657664 55.9669231,19.3431435 56.5656858,17.9205206 C56.6065255,17.92335 56.6473651,17.9261794 56.6882048,17.9295747 L57.7302758,22.2347914 L54.7509542,22.2347914 Z M30.9466817,14.607292 C29.7340062,17.2442938 28.5239656,19.8750709 27.3145836,22.505848 C27.2816484,22.5069798 27.2487132,22.5086774 27.2164366,22.5098092 C27.182184,22.3875791 27.142003,22.2659148 27.1149961,22.141987 C26.651268,20.021068 26.1928094,17.8995831 25.7238117,15.7797958 C25.5683573,15.0769726 24.9715708,14.6038967 24.1580704,14.5965403 C22.1424339,14.5773003 20.1261386,14.5903156 18.1170891,14.5903156 C18.0301401,14.6927399 17.9576826,14.7832807 18.0288227,14.9247508 C19.1097572,15.1658158 20.1979375,15.4165007 21.2307865,15.8233686 C21.8348188,16.0610383 22.1681234,16.4333874 22.3288473,16.9817254 C22.9895282,19.2378898 23.672605,21.4889613 24.3490948,23.7411645 C24.6178464,24.636387 24.8918675,25.5310436 25.1599604,26.4160803 L28.9231407,26.4160803 C30.8333844,22.4883057 32.7403347,18.5673217 34.6657287,14.607292 L30.9466817,14.607292 L30.9466817,14.607292 Z M47.8793461,20.1042524 C47.4096896,19.7930183 46.8860194,19.5587439 46.3663013,19.3176789 C45.8334092,19.0709551 45.271534,18.8610136 44.8203212,18.5028114 C44.2597635,18.0574637 44.3183882,17.5215751 44.959308,17.162807 C45.3703397,16.9324938 45.831433,16.8583635 46.3149223,16.8391236 C47.3958568,16.7961167 48.419484,17.0111511 49.4635311,17.3761439 C49.6703644,16.5341141 49.8679758,15.7288666 50.0688807,14.9100379 C48.5485902,14.394521 47.0269822,14.2994532 45.4796847,14.4601631 C44.3915045,14.5733392 43.3810514,14.8862709 42.4812607,15.4447947 C40.5881432,16.6206938 39.7766189,19.2910825 42.5379093,20.8398967 C42.9627738,21.0781322 43.4106931,21.2858103 43.8513666,21.5025424 C44.2353914,21.6909805 44.63786,21.853954 45.0067347,22.0610662 C45.4302819,22.2987359 45.7919108,22.5986524 45.7128662,23.0926658 C45.6325042,23.5895086 45.2115919,23.828876 44.7142698,23.9884542 C44.0015512,24.2170698 43.2644606,24.1836828 42.52737,24.1174749 C41.621651,24.0359881 40.7824611,23.7609703 39.9320732,23.4191787 C39.7160181,24.2900683 39.5078674,25.1264393 39.2951058,25.9820502 C40.6480853,26.4981329 42.9285212,26.7295779 44.4771361,26.5518915 C45.8380201,26.3951427 47.0968049,26.0476923 48.1270191,25.2249024 C49.9549248,23.7666291 49.8403102,21.4046451 47.8793461,20.1042524 L47.8793461,20.1042524 Z M36.2229068,14.6067261 C35.2420954,18.5526088 34.2685298,22.4724611 33.2890358,26.4138168 L36.8275977,26.4138168 C37.8031395,22.4809493 38.7760464,18.5588335 39.7561991,14.6067261 L36.2229068,14.6067261 Z" id="形状"></path>
        </g>
    </g>
</svg>